<?xml version="1.0" standalone="no"?>
<!DOCTYPE svg PUBLIC "-//W3C//DTD SVG 20010904//EN"
 "http://www.w3.org/TR/2001/REC-SVG-20010904/DTD/svg10.dtd">
<svg version="1.0" xmlns="http://www.w3.org/2000/svg"
 width="256.000000pt" height="202.000000pt" viewBox="0 0 256.000000 202.000000"
 preserveAspectRatio="xMidYMid meet">

<g transform="translate(0.000000,202.000000) scale(0.100000,-0.100000)"
fill="#000000" stroke="none">
<path d="M1223 1933 c-49 -5 -54 -15 -19 -31 14 -6 43 -27 64 -47 22 -19 45
-35 51 -35 21 0 92 51 85 61 -9 15 -105 59 -124 57 -8 -1 -34 -3 -57 -5z"/>
<path d="M1400 1911 c19 -11 39 -16 45 -13 5 3 -4 12 -20 18 -46 20 -64 15
-25 -5z"/>
<path d="M1073 1893 c-38 -19 -42 -27 -50 -106 l-6 -59 49 7 c50 7 134 28 180
45 21 8 23 13 14 30 -17 31 -109 100 -133 99 -12 0 -36 -7 -54 -16z"/>
<path d="M1490 1875 c-11 -13 -11 -19 2 -32 15 -14 17 -13 27 5 15 27 -10 50
-29 27z"/>
<path d="M900 1765 c-7 -9 -10 -18 -7 -21 3 -3 10 4 17 15 13 25 8 27 -10 6z"/>
<path d="M1241 1705 c-30 -13 -90 -29 -133 -35 l-79 -13 7 -31 c11 -51 45
-136 54 -136 42 0 245 114 256 144 6 15 -32 97 -44 95 -4 -1 -31 -12 -61 -24z"/>
<path d="M1481 1674 l-43 -58 16 -73 c9 -41 16 -98 16 -128 0 -30 3 -55 6 -55
11 0 93 51 105 66 22 27 2 169 -38 262 l-19 44 -43 -58z"/>
<path d="M831 1652 c-25 -49 -53 -164 -43 -173 4 -4 19 -9 35 -13 27 -6 27 -6
27 48 0 30 5 78 11 106 15 70 -2 88 -30 32z"/>
<path d="M927 1663 c-10 -17 -18 -135 -11 -168 6 -36 7 -36 53 -33 34 2 45 7
44 18 -1 8 -10 54 -20 103 -15 78 -19 87 -39 87 -13 0 -25 -3 -27 -7z"/>
<path d="M1734 1549 c-10 -24 -28 -57 -40 -74 -14 -22 -23 -56 -28 -108 -7
-83 -28 -162 -57 -219 -20 -40 -14 -48 29 -40 31 6 96 105 120 182 19 61 23
238 6 278 -10 23 -11 22 -30 -19z"/>
<path d="M1340 1534 c-42 -31 -131 -77 -183 -94 -21 -6 -37 -16 -35 -20 2 -5
25 -36 51 -70 l49 -63 49 6 c26 3 67 12 90 18 l42 13 -6 96 c-3 52 -10 105
-14 118 l-9 22 -34 -26z"/>
<path d="M780 1432 c0 -18 63 -82 81 -82 9 0 -7 70 -18 81 -4 4 -20 11 -35 14
-24 6 -28 4 -28 -13z"/>
<path d="M1002 1188 c38 -75 171 -213 213 -224 24 -6 32 -2 56 27 42 51 84
132 71 137 -6 2 -38 21 -72 43 -52 33 -72 40 -143 48 -45 5 -95 14 -110 20
-48 18 -49 13 -15 -51z"/>
<path d="M1328 1233 c-25 -6 -22 -16 11 -36 32 -19 41 -14 41 20 0 23 -12 27
-52 16z"/>
<path d="M1375 1068 c-10 -18 -41 -54 -68 -80 -44 -44 -46 -48 -24 -48 49 0
131 21 150 38 11 9 33 35 49 57 l29 40 -48 12 c-66 17 -66 17 -88 -19z"/>
<path d="M1541 1040 c-17 -22 -29 -40 -26 -40 9 0 93 59 100 70 3 6 -5 10 -18
10 -16 0 -34 -13 -56 -40z"/>
<path d="M1677 700 c-16 -13 -27 -31 -27 -46 0 -14 -7 -27 -15 -30 -8 -4 -15
-14 -15 -24 0 -10 7 -20 15 -24 12 -4 15 -24 15 -91 l0 -85 30 0 30 0 0 90 c0
89 0 90 25 90 18 0 25 5 25 20 0 15 -7 20 -26 20 -21 0 -25 4 -22 23 2 17 9
22 30 20 16 -1 29 5 33 14 14 38 -57 55 -98 23z"/>
<path d="M200 545 l0 -145 30 0 c30 0 30 1 30 55 l0 55 65 0 65 0 0 30 0 30
-65 0 -65 0 0 35 0 35 70 0 c68 0 70 1 70 25 l0 25 -100 0 -100 0 0 -145z"/>
<path d="M960 655 c0 -24 -5 -35 -15 -35 -8 0 -15 -9 -15 -20 0 -11 7 -20 15
-20 12 0 15 -14 15 -66 0 -36 4 -74 10 -84 19 -36 103 -45 123 -13 10 17 -12
37 -40 38 -27 0 -28 1 -31 63 l-3 62 31 0 c23 0 30 4 30 19 0 14 -8 21 -27 23
-23 2 -29 8 -31 36 -3 28 -7 32 -33 32 -27 0 -29 -3 -29 -35z"/>
<path d="M1820 660 c0 -18 -6 -33 -15 -36 -8 -4 -15 -15 -15 -25 0 -10 7 -19
15 -19 12 0 15 -14 15 -66 0 -74 11 -101 45 -114 28 -11 85 5 85 23 0 21 -14
32 -40 32 -24 0 -25 3 -28 63 -3 61 -2 62 23 62 18 0 25 5 25 20 0 15 -7 20
-25 20 -22 0 -25 4 -25 35 0 32 -2 35 -30 35 -27 0 -30 -3 -30 -30z"/>
<path d="M2110 545 l0 -145 83 0 c127 0 187 46 187 145 0 101 -57 145 -187
145 l-83 0 0 -145z m180 70 c25 -23 34 -72 21 -108 -12 -30 -62 -57 -106 -57
l-25 0 0 96 0 97 45 -6 c25 -2 55 -13 65 -22z"/>
<path d="M483 615 c-34 -14 -38 -21 -25 -42 5 -9 18 -9 49 0 32 8 45 8 57 -2
26 -22 19 -28 -41 -33 -84 -7 -117 -55 -73 -111 26 -33 64 -42 101 -23 16 8
29 10 29 5 0 -5 14 -9 30 -9 l30 0 0 80 c0 93 -12 125 -53 140 -39 13 -65 12
-104 -5z m94 -132 c6 -16 -41 -45 -61 -37 -19 7 -22 40 -3 48 20 8 60 2 64
-11z"/>
<path d="M754 616 c-45 -20 -64 -53 -64 -107 0 -39 5 -53 29 -77 46 -46 110
-50 161 -12 24 18 24 19 6 39 -17 19 -21 20 -36 6 -22 -20 -64 -19 -84 1 -19
18 -21 75 -4 92 15 15 80 16 94 2 7 -7 16 -4 28 9 17 19 17 20 -7 36 -35 23
-87 28 -123 11z"/>
<path d="M1169 615 c-28 -15 -43 -52 -32 -80 3 -10 30 -28 60 -41 29 -13 53
-28 53 -34 0 -18 -30 -23 -68 -12 -35 11 -62 3 -62 -18 0 -27 127 -43 155 -20
54 44 41 91 -31 121 -30 13 -54 26 -54 31 0 16 33 21 62 10 24 -9 30 -8 38 8
14 26 14 27 -21 39 -42 14 -68 13 -100 -4z"/>
<path d="M1414 616 c-44 -20 -64 -52 -64 -107 0 -81 71 -131 153 -108 96 26
112 156 25 209 -38 23 -70 25 -114 6z m84 -52 c25 -17 31 -81 10 -102 -20 -20
-76 -15 -88 7 -16 31 -12 69 10 91 24 24 38 25 68 4z"/>
<path d="M1263 170 c0 -30 2 -43 4 -28 2 16 2 40 0 56 -2 15 -4 2 -4 -28z"/>
<path d="M1797 193 c6 -4 13 -22 16 -38 4 -27 5 -27 3 4 0 21 -7 36 -16 38
-10 3 -11 2 -3 -4z"/>
<path d="M698 160 c-3 -17 -1 -30 4 -30 4 0 8 14 8 30 0 17 -2 30 -4 30 -2 0
-6 -13 -8 -30z"/>
<path d="M737 183 c-13 -12 -7 -40 11 -54 15 -13 16 -12 3 3 -7 10 -11 27 -8
38 5 21 4 24 -6 13z"/>
<path d="M823 155 c0 -22 2 -30 4 -17 2 12 2 30 0 40 -3 9 -5 -1 -4 -23z"/>
<path d="M916 177 c3 -10 9 -15 12 -12 3 3 0 11 -7 18 -10 9 -11 8 -5 -6z"/>
<path d="M1140 181 c0 -6 4 -13 10 -16 6 -3 7 1 4 9 -7 18 -14 21 -14 7z"/>
<path d="M1300 160 c0 -39 6 -39 12 0 3 17 1 30 -4 30 -4 0 -8 -13 -8 -30z"/>
<path d="M1660 179 c0 -5 5 -7 10 -4 6 3 10 8 10 11 0 2 -4 4 -10 4 -5 0 -10
-5 -10 -11z"/>
<path d="M1912 160 c0 -19 2 -27 5 -17 2 9 2 25 0 35 -3 9 -5 1 -5 -18z"/>
<path d="M1052 160 c0 -14 2 -19 5 -12 2 6 2 18 0 25 -3 6 -5 1 -5 -13z"/>
<path d="M467 149 c4 -13 8 -18 11 -10 2 7 -1 18 -6 23 -8 8 -9 4 -5 -13z"/>
<path d="M1022 150 c0 -14 2 -19 5 -12 2 6 2 18 0 25 -3 6 -5 1 -5 -13z"/>
<path d="M1184 140 c0 -13 4 -16 10 -10 7 7 7 13 0 20 -6 6 -10 3 -10 -10z"/>
<path d="M2030 141 c0 -6 4 -13 10 -16 6 -3 7 1 4 9 -7 18 -14 21 -14 7z"/>
</g>
</svg>
